SplineFontDB: 3.0
FontName: rsfs10
FullName: rsfs10
FamilyName: rsfs10
Weight: Roman
Copyright: Copyright (c) Taco Hoekwater, 1998. All rights reserved.
Version: 001.001
ItalicAngle: -12
UnderlinePosition: -100
UnderlineWidth: 50
Ascent: 800
Descent: 200
LayerCount: 2
Layer: 0 0 "+gMyXYgAA"  1
Layer: 1 0 "+Uk2XYgAA"  0
OS2Version: 0
OS2_WeightWidthSlopeOnly: 0
OS2_UseTypoMetrics: 0
CreationTime: 1370035464
ModificationTime: 1370035464
OS2TypoAscent: 0
OS2TypoAOffset: 1
OS2TypoDescent: 0
OS2TypoDOffset: 1
OS2TypoLinegap: 0
OS2WinAscent: 0
OS2WinAOffset: 1
OS2WinDescent: 0
OS2WinDOffset: 1
HheadAscent: 0
HheadAOffset: 1
HheadDescent: 0
HheadDOffset: 1
OS2Vendor: 'PfEd'
DEI: 91125
Encoding: Custom
UnicodeInterp: none
NameList: Adobe Glyph List
DisplaySize: -24
AntiAlias: 1
FitToEm: 1
WinInfo: 0 28 15
BeginPrivate: 8
BlueValues 17 [ -22 0 717 717 ]
BlueScale 7 0.04379
BlueShift 1 7
BlueFuzz 1 1
StdHW 6 [ 22 ]
StdVW 6 [ 22 ]
ForceBold 5 false
StemSnapV 12 [ 22 26 62 ]
EndPrivate
BeginChars: 256 27

StartChar: B
Encoding: 66 66 0
Width: 908
Flags: W
HStem: -14 22<140.5 217 140.5 228.5> -8 22<550.5 580 550.5 581.5> 269 22<241.5 276 241.5 277.5> 297 22<641.5 655.5 641.5 658> 353 22<677.5 688.5> 686 22<607 675.5>
VStem: 876 52G<544 565 533.5 571.5>
LayerCount: 2
Fore
SplineSet
642 708 m 0xbe
 722 708 795 697 849 666 c 1
 901 699 l 2
 902 700 904 700 905 700 c 0
 909 700 913 698 914 694 c 2
 916 684 l 2
 916 681 914 679 912 677 c 0
 901 670 888 661 875 649 c 1
 881 644 886 639 891 634 c 0
 914 611 928 582 928 548 c 0
 928 519 917 486 892 450 c 0
 866 414 830 380 789 352 c 1
 809 340 825 324 834 304 c 0
 841 290 845 273 845 256 c 0
 845 220 829 178 799 135 c 0
 772 98 733 61 689 34 c 0
 646 8 600 -8 563 -8 c 0
 524 -8 495 8 486 39 c 0
 484 45 484 51 484 58 c 0
 484 84 496 115 517 145 c 0
 533 168 562 187 589 199 c 0
 624 215 657 221 686 221 c 0
 690 221 694 217 694 213 c 0
 694 211 694 209 693 208 c 2
 689 202 l 2
 687 200 685 199 682 199 c 0
 657 199 628 194 597 181 c 0
 573 170 549 154 536 135 c 0
 516 107 506 81 506 61 c 0
 506 56 507 51 508 47 c 0
 513 26 534 14 567 14 c 0x7e
 593 14 627 28 659 51 c 0
 696 78 723 112 747 145 c 0
 780 191 798 236 798 270 c 0
 798 279 796 287 794 294 c 0
 788 311 777 325 761 334 c 1
 719 311 676 297 640 297 c 0
 624 297 608 298 594 303 c 1
 569 269 546 236 524 205 c 0
 442 89 286 -14 171 -14 c 0
 98 -14 34 10 34 62 c 0
 34 80 41 100 58 124 c 0
 70 141 94 153 115 153 c 0
 133 153 148 144 148 119 c 0
 148 100 118 80 92 80 c 0
 80 80 69 85 63 95 c 1
 58 84 55 75 55 66 c 0
 55 26 106 8 175 8 c 0
 259 8 365 111 438 215 c 0
 544 364 659 527 822 647 c 1
 777 675 713 686 638 686 c 0
 574 686 496 668 417 628 c 0
 347 593 282 541 243 485 c 0
 209 437 189 392 189 356 c 0
 189 352 189 348 190 344 c 0
 194 312 219 291 264 291 c 0
 288 291 319 300 350 319 c 0
 380 338 403 364 421 390 c 0
 464 451 504 509 504 551 c 2
 504 559 l 2
 504 562 506 565 509 566 c 0
 512 568 515 569 518 570 c 1
 522 570 527 567 527 562 c 0
 528 553 529 544 529 535 c 0
 529 489 513 436 473 380 c 0
 451 349 416 321 378 301 c 0
 337 280 295 269 260 269 c 0
 206 269 172 295 165 338 c 0
 164 344 163 350 163 357 c 0
 163 398 184 447 218 495 c 0
 261 555 332 609 405 646 c 0
 490 689 572 708 642 708 c 0xbe
684 375 m 0
 709 375 733 372 753 366 c 1
 789 394 816 427 839 460 c 0
 865 497 876 530 876 558 c 0
 876 585 866 608 849 625 c 1
 789 564 715 469 644 372 c 1
 658 374 671 375 684 375 c 0
641 331 m 0
 638 326 635 323 633 320 c 1
 635 319 639 319 644 319 c 0
 667 319 698 330 727 348 c 1
 713 351 697 353 680 353 c 0
 671 353 662 352 653 347 c 1
 653 347 649 343 641 331 c 0
EndSplineSet
EndChar

StartChar: C
Encoding: 67 67 1
Width: 666
Flags: MW
HStem: -19 22<291 333 291 334.5> 350 22<213 245 245 254.5 213 266> 692 22<711.5 751>
VStem: 26 51<467 481 460.5 492.5> 173 62<61.5 150.5>
LayerCount: 2
Fore
SplineSet
345 88 m 0
 347 86 348 84 348 81 c 0
 348 79 347 78 346 76 c 2
 343 73 l 1
 336 71 l 2
 335 70 333 70 332 70 c 0
 331 70 330 70 329 71 c 0
 312 81 304 98 304 117 c 0
 304 138 314 163 331 188 c 0
 349 214 375 240 405 261 c 0
 430 278 459 291 483 291 c 0
 531 291 566 271 576 233 c 0
 578 226 579 219 579 211 c 0
 579 178 563 139 536 100 c 0
 513 67 476 37 437 16 c 0
 395 -7 352 -19 317 -19 c 0
 231 -19 181 25 174 94 c 0
 173 101 173 108 173 116 c 0
 173 185 208 268 266 350 c 1
 245 350 l 2
 164 350 93 367 52 412 c 0
 36 430 26 454 26 480 c 0
 26 505 35 534 57 565 c 0
 80 598 121 626 160 644 c 0
 210 667 257 676 298 676 c 0
 303 676 306 672 306 668 c 0
 306 664 303 661 301 657 c 0
 299 655 297 654 294 654 c 0
 263 654 226 646 188 626 c 1
 156 608 128 582 109 555 c 0
 87 523 77 493 77 469 c 0
 77 452 81 437 90 426 c 0
 118 388 177 372 249 372 c 0
 260 372 271 372 282 373 c 1
 342 455 418 537 511 608 c 0
 585 665 672 714 740 714 c 0
 779 714 805 696 811 664 c 0
 812 660 812 655 812 651 c 0
 812 622 798 589 774 556 c 0
 727 489 639 441 559 410 c 0
 490 383 425 367 364 358 c 1
 298 266 241 173 235 97 c 1
 235 86 l 2
 235 37 261 3 321 3 c 0
 345 3 377 13 408 33 c 0
 440 54 464 82 484 110 c 0
 514 152 534 192 534 223 c 2
 534 227 l 1
 533 252 514 269 479 269 c 0
 463 269 440 259 419 244 c 0
 392 225 372 202 356 179 c 0
 339 155 332 134 332 118 c 0
 332 105 337 95 345 88 c 0
346 76 m 1
 346 83 347 85 347 85 c 1
 347 84 l 1
 348 83 348 82 348 81 c 0
 348 79 347 77 346 76 c 1
736 692 m 0
 687 692 620 644 562 592 c 0
 488 526 433 455 381 383 c 1
 434 391 490 406 548 428 c 0
 626 458 707 504 750 565 c 0
 772 597 786 626 786 649 c 1
 785 658 l 2
 782 679 766 692 736 692 c 0
EndSplineSet
EndChar

StartChar: D
Encoding: 68 68 2
Width: 774
Flags: W
HStem: -31 21<371 403> -17 23<174 183 183 215> -9 21<379 405.5> 25 23<185 193 193 201.5> 272 22<232 286 232 288.5> 686 22<498 606.5>
VStem: 136 47<342 381.5> 771 31<447.5 488.5>
LayerCount: 2
Fore
SplineSet
849 563 m 0x5f
 849 559 846 556 844 552 c 0
 842 550 840 549 837 549 c 0
 825 549 811 544 797 536 c 1
 800 520 802 502 802 484 c 0
 802 409 775 321 724 227 c 0
 672 131 581 25 467 -16 c 0
 438 -27 414 -31 392 -31 c 0xbf
 350 -31 319 -15 287 -1 c 1
 263 -11 239 -17 215 -17 c 2
 183 -17 l 2
 137 -17 63 -14 63 10 c 0
 63 13 64 16 67 20 c 0
 87 47 146 48 185 48 c 2
 193 48 l 2
 225 48 251 39 275 29 c 1
 338 75 415 183 485 282 c 0
 561 389 662 507 762 552 c 1
 738 635 667 686 546 686 c 0
 450 686 317 614 250 520 c 0
 207 459 183 402 183 361 c 0
 183 320 207 294 257 294 c 0
 315 294 397 357 445 425 c 0
 479 474 497 520 497 558 c 0
 497 562 499 565 503 566 c 0
 505 567 508 568 510 568 c 2
 512 568 l 2
 516 568 519 565 520 561 c 0
 521 557 521 552 521 547 c 0
 521 508 502 462 469 415 c 0
 418 342 324 272 253 272 c 0
 174 272 136 312 136 372 c 0
 136 417 157 473 198 530 c 1
 274 639 433 708 550 708 c 0
 684 708 763 652 791 563 c 1
 808 568 824 571 841 571 c 0
 846 571 849 567 849 563 c 0x5f
698 235 m 0
 746 327 771 412 771 483 c 0
 771 494 770 505 769 516 c 1
 708 466 637 366 571 272 c 0
 500 172 407 62 313 11 c 1
 338 0 363 -9 395 -9 c 0
 416 -9 439 -5 466 5 c 0
 570 45 651 144 698 235 c 0
219 6 m 0x5f
 229 6 240 9 251 14 c 1
 233 21 213 25 190 25 c 0
 157 25 129 24 120 11 c 1
 121 12 129 6 219 6 c 0x5f
EndSplineSet
EndChar

StartChar: E
Encoding: 69 69 3
Width: 562
Flags: MW
HStem: -8 22<207.5 258.5 207.5 260> 255 22<344 392.5> 346 22<397 411.5> 389 22 676 32<547.5 584>
LayerCount: 2
Fore
SplineSet
626 611 m 2
 625 609 622 608 619 608 c 0
 609 608 594 603 580 593 c 1
 564 583 552 569 542 555 c 0
 527 533 518 513 518 498 c 0
 518 478 533 466 563 466 c 0
 575 466 592 472 608 484 c 0
 627 497 642 513 653 530 c 1
 673 557 681 582 681 602 c 0
 681 615 678 626 672 635 c 0
 654 664 611 676 557 676 c 0
 531 676 498 665 466 643 c 0
 431 618 407 587 385 555 c 0
 352 508 329 464 329 430 c 0
 329 426 329 423 330 419 c 0
 331 414 332 410 334 406 c 1
 352 409 369 411 385 411 c 0
 406 411 428 408 445 400 c 0
 451 397 463 391 463 380 c 0
 463 376 462 371 458 366 c 0
 453 358 444 353 437 351 c 0
 428 348 416 346 407 346 c 0
 366 346 332 355 307 374 c 1
 292 368 276 361 260 352 c 0
 221 328 189 295 166 261 c 0
 127 205 104 153 104 112 c 0
 104 102 105 93 108 84 c 0
 123 38 172 14 243 14 c 0
 274 14 313 24 352 47 c 0
 389 69 419 100 440 131 c 1
 459 156 467 180 467 198 c 0
 467 206 465 214 462 220 c 0
 449 244 415 255 370 255 c 0
 318 255 255 178 245 107 c 0
 245 104 243 101 240 100 c 2
 233 97 l 1
 229 97 l 2
 226 97 224 99 223 102 c 0
 222 103 222 105 222 106 c 0
 232 185 307 277 374 277 c 0
 428 277 476 265 502 232 c 0
 512 220 517 204 517 187 c 0
 517 167 510 145 493 121 c 0
 467 85 425 52 381 30 c 0
 330 4 281 -8 239 -8 c 0
 155 -8 87 17 58 74 c 0
 49 92 45 111 45 133 c 0
 45 174 61 222 96 271 c 0
 125 311 173 346 222 370 c 0
 244 380 266 389 288 395 c 1
 284 400 281 406 279 411 c 0
 274 423 272 436 272 450 c 0
 272 485 286 524 315 565 c 0
 343 603 385 640 431 666 c 0
 479 693 527 708 568 708 c 0
 627 708 676 692 699 653 c 0
 707 640 711 625 711 609 c 0
 711 582 700 552 678 520 c 0
 664 501 645 481 622 467 c 1
 601 453 578 444 559 444 c 0
 528 444 503 456 495 481 c 0
 493 487 492 493 492 499 c 0
 492 519 502 542 518 565 c 0
 530 582 547 598 567 611 c 1
 586 622 606 630 623 630 c 0
 628 630 632 626 632 622 c 0
 632 620 631 618 630 617 c 2
 626 611 l 2
381 388 m 0
 371 388 360 387 350 385 c 1
 363 374 384 368 410 368 c 0
 416 368 421 368 426 370 c 0
 429 371 434 376 434 376 c 1
 434 376 435 377 435 378 c 0
 435 379 434 380 429 382 c 0
 417 387 400 388 381 388 c 0
EndSplineSet
EndChar

StartChar: F
Encoding: 70 70 4
Width: 895
Flags: MW
HStem: -22 22<169 255 169 266> 271 22 350 22<330.5 364.5 330.5 365> 595 56<917 955.5> 672 56<627.5 692.5>
VStem: 41 22<41 68> 259 22
LayerCount: 2
Fore
SplineSet
816 406 m 0
 831 406 844 400 848 386 c 0
 849 383 849 381 849 378 c 0
 849 367 844 356 836 345 c 0
 814 313 768 300 733 290 c 1
 724 276 721 263 721 253 c 0
 721 249 721 246 722 243 c 1
 722 241 l 2
 722 238 720 235 717 233 c 2
 662 211 l 2
 661 210 660 210 659 210 c 0
 658 210 656 210 655 211 c 1
 653 211 652 213 651 215 c 0
 650 216 650 217 650 218 c 0
 650 219 650 220 651 221 c 0
 657 240 666 259 677 278 c 1
 653 274 630 271 608 270 c 1
 599 249 587 227 571 205 c 0
 486 84 325 -22 207 -22 c 0
 122 -22 41 1 41 59 c 0
 41 77 49 99 67 124 c 0
 79 141 103 153 124 153 c 0
 142 153 157 144 157 119 c 0
 157 100 127 80 101 80 c 0
 89 80 78 85 71 95 c 1
 65 83 63 73 63 64 c 0
 63 18 127 0 211 0 c 0
 299 0 409 107 486 215 c 0
 498 232 509 250 520 267 c 1
 485 264 447 258 408 246 c 0
 370 234 331 218 312 191 c 0
 311 189 308 188 305 188 c 2
 294 188 l 2
 293 188 291 188 289 189 c 0
 287 191 286 193 286 196 c 0
 286 198 286 199 287 201 c 0
 312 235 360 252 398 264 c 0
 447 280 492 287 534 290 c 1
 567 346 596 403 637 460 c 0
 675 514 732 566 797 606 c 0
 798 607 800 607 801 607 c 0
 805 607 808 605 809 601 c 2
 811 591 l 2
 811 589 810 586 809 585 c 0
 762 542 722 496 689 450 c 0
 651 396 638 345 617 293 c 1
 641 294 666 297 692 302 c 1
 704 320 l 2
 719 341 737 362 761 380 c 0
 777 393 798 406 816 406 c 0
986 649 m 1
 988 648 990 645 990 643 c 0
 990 641 989 639 988 638 c 2
 960 599 l 2
 959 597 957 595 954 595 c 0
 821 595 757 672 628 672 c 0
 578 672 520 663 459 632 c 0
 405 605 354 564 323 520 c 0
 298 484 284 451 284 425 c 0
 284 420 284 416 285 412 c 0
 290 388 312 372 349 372 c 0
 380 372 415 379 453 397 c 1
 482 412 509 436 526 460 c 0
 552 496 564 530 564 557 c 0
 564 569 562 580 557 589 c 0
 556 590 556 592 556 593 c 0
 556 596 557 598 560 600 c 2
 566 604 l 2
 568 605 569 606 571 606 c 2
 575 605 l 1
 601 593 614 570 614 543 c 0
 614 516 601 483 578 450 c 0
 556 419 517 395 480 379 c 0
 431 358 385 350 345 350 c 0
 300 350 269 370 260 405 c 0
 258 412 258 419 258 426 c 0
 258 457 273 493 298 530 c 0
 336 584 396 634 461 670 c 0
 529 708 599 728 656 728 c 0
 788 728 853 651 981 651 c 0
 983 651 985 651 986 649 c 1
812 355 m 0
 820 366 823 371 823 377 c 1
 821 381 818 384 812 384 c 0
 806 384 796 376 784 364 c 0
 774 354 760 334 747 316 c 1
 774 325 798 336 812 355 c 0
EndSplineSet
EndChar

StartChar: G
Encoding: 71 71 5
Width: 610
Flags: MW
HStem: -22 22<202.5 268 202.5 282> 199 22<344 378> 280 22<163.5 201.5> 694 23<636 664>
VStem: 68 22G<40 67.5 40 68>
LayerCount: 2
Fore
SplineSet
298 657 m 0
 296 655 294 654 291 654 c 0
 265 654 231 639 199 616 c 0
 161 588 133 554 109 520 c 0
 77 473 59 430 59 395 c 0
 59 384 61 373 65 364 c 0
 82 323 130 302 197 302 c 0
 213 302 230 304 248 307 c 1
 252 343 270 384 299 425 c 0
 349 496 410 567 487 630 c 0
 540 674 605 717 656 717 c 0
 691 717 721 705 732 679 c 0
 735 671 737 663 737 654 c 0
 737 634 729 612 713 590 c 0
 655 508 568 430 470 371 c 0
 420 341 368 317 318 301 c 1
 315 291 312 281 311 272 c 1
 311 267 l 2
 311 240 327 221 361 221 c 0
 421 221 475 277 530 333 c 1
 560 370 596 405 641 431 c 0
 642 432 644 432 645 432 c 0
 649 432 652 430 653 426 c 0
 653 425 654 424 654 424 c 1
 655 416 l 2
 655 414 654 410 652 409 c 0
 595 376 584 320 552 275 c 0
 504 207 524 151 474 79 c 0
 424 8 321 -22 243 -22 c 0
 155 -22 68 -1 68 59 c 0
 68 77 76 98 94 124 c 0
 106 141 130 153 151 153 c 0
 169 153 184 144 184 119 c 0
 184 100 154 80 128 80 c 0
 116 80 105 85 99 95 c 1
 93 83 90 72 90 63 c 0
 90 17 159 0 246 0 c 0
 290 0 354 41 388 89 c 0
 426 143 441 196 472 250 c 1
 436 220 399 199 357 199 c 0
 300 199 261 223 250 268 c 0
 249 273 248 279 248 285 c 1
 229 282 210 280 193 280 c 0
 116 280 53 302 25 354 c 0
 16 370 11 389 11 409 c 0
 11 445 26 486 57 530 c 0
 84 568 123 605 169 633 c 0
 212 660 258 676 295 676 c 0
 300 676 303 672 303 668 c 0
 303 664 300 661 298 657 c 0
384 415 m 0
 364 386 345 358 331 332 c 1
 367 346 405 365 441 388 c 0
 532 447 606 523 661 600 c 0
 679 625 691 649 691 666 c 2
 691 671 l 1
 689 685 676 694 652 694 c 0
 620 694 579 656 539 615 c 0
 490 565 432 483 384 415 c 0
EndSplineSet
EndChar

StartChar: H
Encoding: 72 72 6
Width: 969
Flags: W
HStem: -22 22<135.5 211 135.5 220.5> -8 22<714 759 714 762> 374 22<683.5 695 695 755> 377 23 455 22<528 545.5> 608 22<453 480> 686 22<1127.5 1181.5> 697 20G<861 864>
VStem: 615 62<63.5 89 49 121> 1214 26<627 655>
LayerCount: 2
Fore
SplineSet
920 140 m 0x5ec0
 920 138 920 137 919 135 c 0
 870 67 794 -8 730 -8 c 0x5ec0
 650 -8 615 33 615 94 c 0
 615 148 642 216 691 285 c 0
 711 314 733 344 755 374 c 1
 695 374 l 2
 672 374 649 374 626 373 c 1
 585 317 545 261 505 205 c 0
 423 89 276 -22 165 -22 c 0
 92 -22 33 5 33 57 c 0
 33 76 41 98 59 124 c 0
 71 141 95 153 116 153 c 0
 134 153 149 144 149 119 c 0
 149 100 119 80 93 80 c 0
 81 80 70 85 63 95 c 1
 57 82 54 71 54 61 c 0
 54 20 102 0 169 0 c 0
 253 0 345 109 419 215 c 0
 455 266 494 316 534 366 c 1
 434 354 341 322 283 240 c 0
 282 238 279 237 276 237 c 2
 265 237 l 2
 260 237 257 241 257 245 c 2
 258 250 l 1
 327 347 439 380 554 391 c 1
 578 420 603 449 628 478 c 1
 595 463 560 455 531 455 c 0
 494 455 460 468 460 496 c 0
 460 506 464 517 473 530 c 0
 489 553 497 571 497 585 c 0
 497 599 488 608 472 608 c 0
 434 608 396 557 358 503 c 0
 356 501 354 499 351 499 c 2
 340 499 l 2
 335 499 332 503 332 508 c 0
 332 509 332 511 333 512 c 0
 370 565 424 630 476 630 c 0
 520 630 547 609 547 576 c 0
 547 560 540 541 526 520 c 0
 518 509 514 500 514 493 c 0
 514 483 522 477 534 477 c 0
 590 477 666 513 703 565 c 1
 757 618 806 666 856 714 c 0
 858 716 860 717 862 717 c 0
 866 717 869 714 870 711 c 2
 873 703 l 1
 873 700 873 698 871 695 c 0
 793 596 717 496 643 396 c 1
 771 396 l 1xadc0
 890 557 1027 708 1169 708 c 0
 1219 708 1240 682 1240 644 c 0
 1240 609 1222 564 1191 520 c 0
 1116 414 983 385 849 377 c 1
 824 343 800 309 776 275 c 0
 717 191 677 113 677 65 c 0
 677 33 694 14 734 14 c 0
 784 14 847 79 894 145 c 0
 895 147 898 148 901 148 c 2
 912 148 l 2
 916 148 920 145 920 140 c 0x5ec0
1165 686 m 0
 1090 686 977 551 866 400 c 1
 988 410 1101 439 1166 530 c 0
 1197 574 1214 613 1214 641 c 0
 1214 669 1198 686 1165 686 c 0
EndSplineSet
EndChar

StartChar: I
Encoding: 73 73 7
Width: 809
Flags: MW
HStem: -17 23<163.5 242.5 163.5 254.5> 233 22 697 20G<941.5 943.5>
LayerCount: 2
Fore
SplineSet
649 474 m 0
 698 543 768 609 847 662 c 1
 835 658 822 654 809 650 c 0
 692 614 575 579 509 485 c 0
 471 432 449 381 449 341 c 0
 449 333 450 325 452 318 c 0
 459 291 480 271 511 261 c 1
 558 332 599 403 649 474 c 0
702 464 m 0
 652 394 635 327 597 257 c 1
 618 261 641 269 664 282 c 0
 697 301 726 328 745 355 c 0
 773 394 782 430 782 462 c 0
 782 470 781 478 780 486 c 0
 780 490 782 493 785 495 c 0
 788 496 791 498 794 498 c 2
 796 498 l 2
 800 498 803 495 804 491 c 0
 805 480 806 468 806 456 c 0
 806 423 799 386 770 345 c 0
 748 314 713 285 676 265 c 0
 644 247 612 237 584 233 c 1
 566 205 l 2
 486 80 315 -17 194 -17 c 0
 121 -17 58 8 58 60 c 0
 58 78 66 99 83 124 c 0
 95 141 119 153 140 153 c 0
 158 153 173 144 173 119 c 0
 173 100 143 80 117 80 c 0
 105 80 94 85 88 95 c 1
 82 84 80 73 80 64 c 0
 80 24 129 6 198 6 c 0
 287 6 405 109 480 215 c 2
 497 239 l 1
 456 251 425 274 411 310 c 0
 406 323 403 338 403 354 c 0
 403 396 421 445 456 495 c 0
 565 649 758 642 939 716 c 0
 940 717 941 717 942 717 c 0
 945 717 949 715 950 711 c 0
 950 710 950 709 951 708 c 2
 952 700 l 2
 952 697 951 694 949 693 c 0
 849 630 761 548 702 464 c 0
EndSplineSet
EndChar

StartChar: J
Encoding: 74 74 8
Width: 1052
Flags: MW
HStem: -300 22<166 213 166 219> 232 22 697 20G<1128.5 1130.5>
VStem: 98 21<-233.5 -215.5> 970 22
LayerCount: 2
Fore
SplineSet
836 474 m 0
 885 543 955 609 1034 662 c 1
 1022 658 1009 654 996 650 c 0
 879 614 762 579 696 485 c 0
 658 432 636 381 636 341 c 0
 636 333 637 325 639 318 c 0
 646 291 666 272 697 261 c 1
 743 332 786 403 836 474 c 0
889 464 m 0
 839 394 814 325 779 256 c 1
 801 259 826 268 851 282 c 0
 884 301 913 328 932 355 c 0
 960 394 969 430 969 462 c 0
 969 470 968 478 967 486 c 0
 967 490 969 493 972 495 c 0
 975 496 978 498 981 498 c 2
 983 498 l 2
 987 498 990 495 991 491 c 0
 992 480 993 468 993 456 c 0
 993 423 986 386 957 345 c 0
 935 314 900 285 863 265 c 1
 830 246 796 235 766 232 c 1
 755 212 743 191 728 170 c 0
 699 129 668 88 634 47 c 1
 720 71 797 102 828 145 c 0
 829 147 832 148 835 148 c 2
 837 148 l 2
 842 148 846 145 846 140 c 0
 846 138 845 137 844 135 c 0
 805 79 708 44 610 18 c 1
 557 -43 498 -104 432 -161 c 0
 353 -229 257 -300 181 -300 c 0
 139 -300 109 -282 100 -249 c 0
 99 -243 98 -237 98 -230 c 0
 98 -201 111 -167 135 -134 c 0
 191 -55 362 -17 488 11 c 0
 500 14 512 17 525 19 c 1
 566 73 604 126 642 180 c 0
 656 200 670 220 683 240 c 1
 642 251 612 274 598 310 c 0
 593 323 590 338 590 354 c 0
 590 396 608 445 643 495 c 0
 752 649 946 641 1126 716 c 0
 1127 717 1128 717 1129 717 c 0
 1132 717 1136 715 1137 711 c 0
 1137 710 1137 709 1138 708 c 2
 1139 700 l 2
 1139 697 1138 694 1136 693 c 0
 1036 630 948 548 889 464 c 0
972 495 m 1
 970 493 969 493 969 493 c 1
 969 493 970 494 972 495 c 1
184 -278 m 0
 242 -278 314 -211 380 -146 c 0
 426 -100 466 -54 504 -7 c 1
 491 -10 l 2
 359 -40 199 -77 151 -144 c 0
 129 -175 118 -203 118 -226 c 0
 118 -231 119 -237 120 -241 c 0
 126 -264 148 -278 184 -278 c 0
EndSplineSet
EndChar

StartChar: K
Encoding: 75 75 9
Width: 914
Flags: W
HStem: -22 22<135.5 211 135.5 220.5> -17 23<651 682 651 682.5> 679 24<1158 1172.5 1134.5 1187 1134.5 1192> 696 20G<859.5 860> 697 20G<863 864.5>
VStem: 561 53<48.5 116.5>
LayerCount: 2
Fore
SplineSet
747 45 m 0x64
 784 76 814 110 838 145 c 0
 840 147 842 148 845 148 c 2
 856 148 l 2
 860 148 865 145 865 140 c 0
 865 138 864 137 863 135 c 0
 837 98 803 61 762 29 c 0
 733 7 697 -17 668 -17 c 0x64
 606 -17 571 17 563 65 c 0
 561 74 561 83 561 93 c 0
 561 140 579 194 619 250 c 0
 633 270 647 290 658 309 c 1
 644 306 631 304 618 304 c 0
 608 304 597 305 589 312 c 0
 587 313 586 315 585 317 c 1
 558 279 531 242 505 205 c 0
 423 89 276 -22 165 -22 c 0
 92 -22 33 5 33 57 c 0
 33 76 41 98 59 124 c 0
 71 141 95 153 116 153 c 0
 134 153 149 144 149 119 c 0
 149 100 119 80 93 80 c 0
 81 80 70 85 63 95 c 1
 57 82 54 71 54 61 c 0
 54 20 102 0 169 0 c 0
 253 0 345 109 419 215 c 0
 482 304 553 393 630 480 c 1
 595 464 560 455 530 455 c 0
 507 455 487 462 475 477 c 0
 469 484 464 493 464 504 c 0
 464 512 466 521 473 530 c 0
 489 553 501 573 501 587 c 2
 501 589 l 1
 500 600 491 608 472 608 c 0
 459 608 441 594 422 577 c 0
 394 551 373 524 353 496 c 0
 351 494 349 492 346 492 c 2
 335 492 l 2
 330 492 327 496 327 500 c 0
 327 502 327 504 328 505 c 0
 349 535 375 565 406 592 c 0
 426 610 453 630 476 630 c 0
 506 630 532 620 542 597 c 0
 545 591 546 583 546 576 c 0
 546 559 539 540 525 520 c 0
 518 509 514 500 514 493 c 0
 514 491 515 489 515 488 c 0
 516 482 522 477 534 477 c 0
 561 477 594 485 628 503 c 0
 658 519 686 541 703 565 c 1
 757 618 806 666 856 714 c 0
 857 715 859 716 860 716 c 2x94
 863 717 l 2x8c
 866 717 869 714 870 711 c 2
 873 700 l 2
 873 699 872 697 871 695 c 0
 788 590 707 484 629 378 c 1
 642 385 655 390 667 390 c 0
 696 390 715 378 722 357 c 1
 744 369 767 384 788 400 c 0
 860 454 915 518 960 582 c 0
 1008 650 1101 703 1168 703 c 0
 1177 703 1185 702 1193 700 c 0
 1196 699 1198 697 1199 694 c 0
 1199 692 1200 690 1200 687 c 0
 1200 683 1196 679 1192 679 c 2
 1187 679 l 2
 1129 679 1048 632 1006 573 c 0
 958 505 893 438 815 383 c 0
 786 363 756 345 726 332 c 1
 725 304 710 272 688 240 c 0
 644 179 616 118 614 69 c 1
 614 66 l 2
 614 31 630 6 672 6 c 0
 692 6 721 23 747 45 c 0x64
639 358 m 0
 627 349 619 339 611 328 c 1
 612 326 616 326 622 326 c 0
 637 326 654 329 672 336 c 0
 673 337 674 339 674 341 c 0
 676 346 676 351 676 355 c 0
 676 364 672 368 663 368 c 0
 657 368 648 365 639 358 c 0
EndSplineSet
EndChar

StartChar: L
Encoding: 76 76 10
Width: 874
Flags: W
HStem: -17 23<135 144 144 160> -17 49G<537.5 589> 73 22<166 172 172 192> 336 22<472.5 525.5> 678 26<562.5 576.5 532.5 597> 694 23<925 959>
VStem: 293 56<428 474.5 428 475.5> 996 37<628.5 658.5>
LayerCount: 2
Fore
SplineSet
800 140 m 0x77
 800 138 799 137 798 135 c 0
 741 54 630 -17 548 -17 c 0
 470 -17 413 5 356 28 c 2
 344 33 l 1
 281 2 216 -17 160 -17 c 2
 144 -17 l 2
 92 -17 12 -15 12 21 c 0
 12 28 16 37 23 47 c 0
 56 94 117 95 166 95 c 2
 172 95 l 2
 230 95 280 86 328 75 c 1
 380 113 429 163 466 215 c 0
 493 254 522 295 552 337 c 1
 542 336 531 336 520 336 c 0
 396 336 293 376 293 461 c 0
 293 490 305 525 333 565 c 0
 388 643 494 704 571 704 c 0
 582 704 592 703 602 700 c 0
 603 699 604 699 604 698 c 0
 606 697 608 695 608 692 c 0
 608 690 607 688 606 687 c 2
 602 681 l 2
 601 679 598 678 596 678 c 0xbb
 529 678 434 624 386 555 c 0
 360 519 349 488 349 461 c 0
 349 395 421 358 524 358 c 0
 539 358 554 359 569 360 c 1
 700 539 846 717 944 717 c 0
 1005 717 1033 686 1033 640 c 0
 1033 606 1017 563 987 520 c 0
 913 414 780 364 651 345 c 1
 551 205 l 2
 511 149 454 98 390 59 c 1
 447 45 504 32 571 32 c 0
 636 32 728 81 774 145 c 0
 775 147 778 148 780 148 c 2
 792 148 l 2
 796 148 800 145 800 140 c 0x77
164 6 m 0
 203 6 249 23 294 51 c 1
 256 64 216 73 168 73 c 0
 134 73 94 64 75 37 c 0
 71 32 70 28 70 24 c 0
 70 8 106 6 164 6 c 0
940 694 m 0xb7
 910 694 794 544 671 373 c 1
 780 394 887 443 949 530 c 0
 980 574 996 614 996 643 c 0
 996 674 978 694 940 694 c 0xb7
EndSplineSet
EndChar

StartChar: M
Encoding: 77 77 11
Width: 1080
Flags: W
HStem: -36 21<456 490> -8 22G<124 133 124 188> -6 21<797 815.5> 0 21 698 20G<953 953 1198 1199> 699 20G<948 949>
LayerCount: 2
Fore
SplineSet
124 14 m 2xc8
 133 14 l 1
 252 21 335 169 469 321 c 1
 600 468 795 577 944 716 c 0
 945 718 947 719 949 719 c 2xc4
 953 718 l 1
 956 716 960 715 962 713 c 0
 964 711 966 709 966 706 c 0
 966 704 965 703 964 701 c 2
 847 555 l 1
 572 170 l 2
 541 127 514 83 497 42 c 0
 488 21 485 10 485 5 c 0
 485 2 486 0 488 0 c 0x98
 500 0 636 157 774 320 c 0
 838 396 916 465 995 534 c 0
 1005 544 1013 555 1024 565 c 2
 1193 716 l 2
 1194 717 1197 718 1199 718 c 2
 1210 715 l 1
 1213 713 l 2
 1215 711 1215 709 1215 707 c 0
 1215 705 1215 703 1214 702 c 2
 1096 555 l 1
 1005 426 949 300 857 171 c 0
 825 125 800 80 790 39 c 0
 787 29 786 21 786 14 c 0xc8
 786 1 791 -6 803 -6 c 0xa8
 828 -6 862 12 893 35 c 0
 933 65 966 101 991 136 c 0
 992 139 995 140 998 140 c 2
 1009 140 l 2
 1010 140 1012 140 1013 138 c 1
 1016 137 1017 134 1017 132 c 0
 1017 130 1016 128 1015 127 c 0
 988 88 951 50 907 19 c 0
 873 -6 832 -28 799 -28 c 0
 753 -28 732 2 728 37 c 0
 727 42 727 47 727 53 c 0
 727 91 740 135 772 180 c 0
 841 277 898 375 961 472 c 1
 902 419 846 366 798 310 c 0
 790 301 782 291 773 280 c 0
 672 161 505 -36 475 -36 c 0
 437 -36 430 -7 430 21 c 2x98
 430 35 l 1
 434 79 450 128 486 180 c 0
 570 298 669 416 755 533 c 1
 660 462 566 392 493 309 c 0
 381 183 259 -8 117 -8 c 0
 70 -8 29 12 29 49 c 0
 29 62 34 78 47 96 c 0
 48 97 55 103 56 103 c 0
 66 116 86 124 103 124 c 0
 122 124 138 114 138 88 c 0
 138 68 105 47 80 47 c 0
 75 47 70 48 66 50 c 1
 66 46 l 2
 66 40 67 34 69 31 c 0
 82 18 100 14 124 14 c 2xc8
EndSplineSet
EndChar

StartChar: N
Encoding: 78 78 12
Width: 902
Flags: W
HStem: -22 22<135.5 213 135.5 215.5> -8 21<645.5 646 646 657> 699 20G<1195 1199 1199 1201>
VStem: 683 81G 683 89G<315.5 350>
LayerCount: 2
Fore
SplineSet
789 700 m 2xa8
 800 700 l 2
 805 700 808 696 808 692 c 0
 808 690 808 689 807 688 c 0
 772 636 764 561 764 495 c 0xb0
 764 430 772 372 772 350 c 2
 772 334 l 2
 772 297 766 258 755 217 c 1
 804 297 857 378 914 460 c 0
 984 559 1074 669 1195 719 c 1
 1199 719 l 2
 1203 719 1206 716 1206 712 c 2
 1203 688 l 2
 1203 685 1201 683 1198 681 c 0
 1091 637 1003 542 938 450 c 0
 831 298 739 145 665 -4 c 0
 663 -7 661 -8 657 -8 c 2
 646 -8 l 2x68
 645 -8 644 -8 643 -7 c 0
 640 -6 638 -3 638 0 c 0
 638 1 638 3 639 4 c 0
 680 82 690 149 690 214 c 0
 690 260 685 304 683 350 c 1
 687 461 l 2
 688 461 690 484 702 535 c 1
 607 399 537 301 466 205 c 0
 386 96 266 -22 165 -22 c 0
 92 -22 33 5 33 57 c 0
 33 76 41 98 59 124 c 0
 71 141 95 153 116 153 c 0
 134 153 149 144 149 119 c 0
 149 100 118 80 92 80 c 0
 80 80 69 85 63 95 c 1
 57 82 54 71 54 61 c 0
 54 20 102 0 169 0 c 0
 257 0 366 107 442 215 c 0
 554 375 668 536 782 697 c 0
 784 699 786 700 789 700 c 2xa8
EndSplineSet
EndChar

StartChar: O
Encoding: 79 79 13
Width: 738
Flags: MW
HStem: -8 22<232 288.5 232 290.5> 549 22<535.5 580> 686 22<597 651.5>
VStem: 95 63<89.5 190.5> 636 41 776 26
LayerCount: 2
Fore
SplineSet
522 493 m 2
 527 499 l 2
 529 500 531 501 533 501 c 0
 534 501 536 501 537 500 c 0
 569 485 597 468 637 466 c 1
 636 515 610 549 550 549 c 0
 521 549 481 522 445 491 c 0
 393 446 352 395 316 345 c 0
 260 265 237 190 228 121 c 0
 227 118 225 115 223 114 c 2
 209 109 l 2
 208 108 206 108 205 108 c 0
 202 108 199 110 198 113 c 1
 198 117 l 1
 207 190 232 270 292 355 c 0
 329 407 374 460 430 507 c 0
 468 538 516 571 554 571 c 0
 629 571 670 531 678 473 c 1
 686 475 693 479 701 484 c 0
 722 496 738 513 750 530 c 0
 768 556 776 579 776 599 c 0
 776 615 771 629 762 640 c 0
 735 673 684 686 619 686 c 0
 575 686 513 652 460 608 c 1
 388 550 338 482 291 415 c 0
 218 312 161 209 158 126 c 1
 158 121 l 2
 158 58 193 14 271 14 c 0
 306 14 354 38 396 71 c 0
 451 114 492 165 527 215 c 0
 585 296 629 377 636 444 c 1
 589 445 554 463 524 480 c 0
 521 481 519 484 519 487 c 0
 519 489 520 491 522 493 c 2
714 466 m 0
 703 460 691 454 679 451 c 1
 679 448 l 2
 679 376 640 290 580 205 c 0
 542 151 490 98 427 55 c 0
 374 18 314 -8 267 -8 c 0
 166 -8 107 43 97 122 c 0
 96 131 95 141 95 150 c 0
 95 231 137 327 205 425 c 0
 256 497 326 568 410 625 c 0
 481 673 561 708 623 708 c 0
 691 708 751 694 783 654 c 0
 796 639 803 620 803 598 c 0
 803 575 795 548 775 520 c 0
 760 500 738 480 714 466 c 0
EndSplineSet
EndChar

StartChar: P
Encoding: 80 80 14
Width: 1013
Flags: W
HStem: -22 22<199 288.5 199 301.5> 269 22<303 341.5 303 342.5 737.5 755> 694 23<674.5 752.5>
VStem: 94 28 225 25 586 28<342 352.5 342 353.5> 609 26<581 584 557 604> 966 65G<517.5 540 500 550.5>
LayerCount: 2
Fore
SplineSet
471 652 m 0xfb
 556 696 639 717 710 717 c 0
 807 717 895 699 955 657 c 1
 975 672 997 686 1018 699 c 0
 1019 700 1020 700 1022 700 c 0
 1025 700 1029 699 1030 696 c 2
 1033 684 l 2
 1033 681 1031 679 1029 677 c 0
 1017 669 1001 655 982 635 c 1
 987 630 992 624 996 619 c 0
 1018 592 1031 559 1031 521 c 0
 1031 479 1015 432 978 380 c 0
 955 347 914 319 875 301 c 0
 825 278 778 269 737 269 c 0
 726 269 715 269 704 270 c 1
 683 240 l 2
 580 94 376 -22 227 -22 c 0
 153 -22 94 5 94 57 c 0
 94 76 102 98 120 124 c 0
 132 141 156 153 177 153 c 0
 195 153 210 144 210 119 c 0
 210 100 181 80 155 80 c 0
 146 80 137 83 130 89 c 1
 125 78 123 69 123 60 c 0
 123 21 167 0 231 0 c 0
 346 0 505 120 597 250 c 0
 607 263 616 277 626 291 c 1
 620 294 614 298 609 302 c 0xfb
 596 313 586 328 586 347 c 0
 586 360 591 374 602 390 c 0
 612 404 625 417 641 428 c 0
 654 438 670 445 684 445 c 0
 686 445 687 445 689 444 c 0
 691 442 692 439 692 437 c 0
 692 435 692 433 691 432 c 2
 687 426 l 2
 685 424 683 423 680 423 c 0
 674 423 664 419 655 412 c 0
 643 403 634 392 626 380 c 0
 618 368 614 357 614 348 c 0xfd
 614 336 620 325 629 318 c 0
 632 316 636 313 640 311 c 1
 721 424 813 543 924 633 c 1
 877 676 799 694 706 694 c 0
 641 694 563 676 482 634 c 0
 411 597 345 543 304 485 c 0
 271 437 251 392 251 356 c 0
 251 352 251 348 252 344 c 0
 256 312 280 291 326 291 c 0
 357 291 400 311 439 339 c 0
 487 374 524 417 554 460 c 0
 591 512 609 561 609 601 c 0
 609 607 609 613 608 618 c 0
 608 621 610 625 613 627 c 0
 616 628 619 630 622 630 c 2
 623 630 l 2
 627 630 631 627 631 623 c 0
 633 608 635 592 635 576 c 0
 635 538 626 496 593 450 c 0
 560 404 515 359 461 322 c 0
 415 291 363 269 322 269 c 0
 268 269 233 295 226 338 c 0
 225 344 225 350 225 356 c 0
 225 398 245 446 280 495 c 0
 324 557 395 613 471 652 c 0xfb
741 291 m 0
 769 291 803 299 837 319 c 0
 867 337 891 364 909 390 c 0
 948 445 966 496 966 539 c 0
 966 562 961 583 951 600 c 1
 883 521 794 397 719 292 c 1
 726 291 734 291 741 291 c 0
EndSplineSet
EndChar

StartChar: Q
Encoding: 81 81 15
Width: 883
Flags: W
HStem: -17 23<178 221.5 178 224> -17 43G<572.5 601> 84 56<196.5 216.5> 294 22<366.5 405.5 366.5 406.5> 694 23<646 711>
VStem: 620 48G<512.5 527 493.5 539.5> 816 68G<546 558.5 518 581>
LayerCount: 2
Fore
SplineSet
209 140 m 0xbe
 292 140 349 112 406 83 c 1
 421 75 l 1
 438 85 455 96 472 107 c 0
 576 176 657 266 720 355 c 0
 777 436 816 515 816 577 c 0
 816 585 815 592 814 599 c 0
 804 659 753 694 669 694 c 0
 623 694 566 678 509 644 c 0
 454 612 408 566 376 520 c 1
 339 469 315 418 315 380 c 2
 315 372 l 1
 318 338 343 316 390 316 c 0
 421 316 459 326 497 347 c 0
 532 367 561 396 581 425 c 0
 608 463 620 498 620 527 c 0
 620 552 611 574 595 589 c 1
 593 592 l 1
 593 594 l 2
 593 598 595 601 598 603 c 2
 615 609 l 2
 617 609 619 608 620 607 c 0
 647 581 668 547 668 507 c 0
 668 480 658 449 634 415 c 0
 609 380 567 350 526 329 c 1
 476 305 427 294 386 294 c 0
 326 294 285 319 273 366 c 0
 271 375 270 384 270 394 c 0
 270 434 289 482 323 530 c 0
 360 581 418 629 480 662 c 0
 548 698 616 717 673 717 c 0
 774 717 849 679 875 606 c 0
 881 588 884 569 884 548 c 0
 884 488 857 417 806 345 c 0
 738 249 636 158 521 90 c 0
 501 78 481 67 461 57 c 1
 501 39 545 26 600 26 c 0x7e
 630 26 668 38 705 60 c 0
 743 83 777 113 799 145 c 0
 801 147 803 148 806 148 c 2
 817 148 l 2
 822 148 825 144 825 140 c 0
 825 138 825 137 824 135 c 0
 797 96 756 60 710 31 c 0
 667 4 620 -17 582 -17 c 0
 507 -17 450 4 395 27 c 1
 324 -1 254 -17 194 -17 c 0
 148 -17 105 -10 77 12 c 0
 64 22 54 36 54 53 c 0
 54 64 58 76 67 89 c 0
 80 107 104 118 124 125 c 0
 155 136 184 140 209 140 c 0xbe
127 86 m 2
 115 85 108 84 105 79 c 0
 97 68 94 58 94 50 c 0
 94 41 98 33 104 28 c 0
 124 11 158 6 198 6 c 0xbe
 245 6 300 19 357 44 c 1
 305 65 251 84 182 84 c 1
 138 87 l 1
 127 86 l 2
EndSplineSet
EndChar

StartChar: R
Encoding: 82 82 16
Width: 850
Flags: W
HStem: -17 21<586.5 602.5> -11 22<108.5 183 108.5 194.5> 266 22<203.5 235 203.5 237> 694 23<577 646>
VStem: 835 52G<551 573.5 541 579>
LayerCount: 2
Fore
SplineSet
612 365 m 2x78
 630 365 645 361 657 355 c 1
 670 360 683 366 696 373 c 0
 736 394 771 427 795 460 c 0
 823 500 835 536 835 566 c 0
 835 592 826 615 811 632 c 1
 713 556 647 459 589 365 c 1
 612 365 l 2x78
494 343 m 1
 494 346 496 350 499 355 c 0
 501 357 503 358 506 358 c 1
 586 464 676 567 791 650 c 1
 749 681 684 694 608 694 c 0
 543 694 465 676 385 634 c 0
 314 597 248 543 207 485 c 0
 173 436 152 390 152 354 c 1
 153 342 l 1
 157 309 181 288 226 288 c 0
 244 288 269 299 292 317 c 0
 320 338 339 364 357 390 c 0
 386 431 465 510 465 552 c 2
 465 558 l 2
 465 561 467 564 470 565 c 2
 486 571 l 1
 490 571 494 568 495 564 c 2
 496 553 l 1
 496 501 450 437 410 380 c 0
 389 350 358 321 322 300 c 1
 288 279 252 266 222 266 c 0
 168 266 134 294 127 337 c 0
 126 343 126 348 126 354 c 0
 126 397 147 446 182 495 c 0
 226 557 298 613 373 652 c 0
 458 696 542 717 612 717 c 0
 693 717 767 703 819 670 c 1
 834 680 850 689 866 699 c 0
 867 700 868 700 869 700 c 0
 872 700 877 698 878 694 c 2
 880 683 l 2
 880 680 879 679 876 677 c 2
 840 654 l 1
 845 649 850 645 854 640 c 0
 874 618 887 590 887 557 c 0
 887 525 875 489 847 450 c 0
 819 411 771 377 724 354 c 0
 709 347 694 342 680 337 c 1
 685 331 688 323 690 315 c 0
 692 309 692 303 692 296 c 0
 692 269 680 236 658 205 c 2
 583 100 l 2
 566 75 556 51 556 33 c 0
 556 30 557 28 557 26 c 0
 558 19 561 13 566 8 c 1
 576 6 586 6 597 6 c 0
 611 6 627 11 644 21 c 0
 653 27 663 34 672 42 c 0
 710 73 741 109 766 145 c 0
 768 147 770 148 773 148 c 2
 784 148 l 2
 786 148 788 148 789 147 c 0
 791 145 793 143 793 140 c 0
 793 138 792 137 791 135 c 0
 765 99 732 63 691 32 c 0
 679 23 666 14 653 6 c 0
 633 -7 612 -17 593 -17 c 0xb8
 580 -17 568 -13 559 -8 c 1
 536 -3 515 7 502 23 c 0
 491 35 482 50 482 68 c 0
 482 80 486 95 497 110 c 2
 578 223 l 2
 602 256 625 292 629 311 c 0
 630 315 630 319 630 322 c 1
 606 317 583 315 562 315 c 1
 535 276 512 239 488 205 c 0
 407 90 252 -11 137 -11 c 0
 64 -11 -2 13 -2 64 c 0
 -2 81 6 101 22 124 c 0
 34 141 59 153 80 153 c 0
 98 153 113 144 113 119 c 0
 113 100 84 81 58 81 c 0
 49 81 40 83 33 89 c 1
 30 81 28 74 28 67 c 0
 28 29 76 11 141 11 c 0
 225 11 330 113 403 215 c 0
 432 257 463 300 494 343 c 1
608 342 m 1
 575 342 l 1
 574 341 573 339 572 337 c 1
 585 338 597 339 611 342 c 1
 608 342 l 1
EndSplineSet
EndChar

StartChar: S
Encoding: 83 83 17
Width: 868
Flags: MW
HStem: -22 22<135 218.5 135 231> 315 22 643 22<645 672.5 671 671> 686 22<927.5 979>
VStem: 32 21<31 66.5> 302 40<440.5 462.5 440.5 467> 993 25<658.5 668>
LayerCount: 2
Fore
SplineSet
675 665 m 0
 680 665 684 661 684 657 c 0
 684 655 683 653 682 652 c 2
 678 646 l 2
 677 644 674 643 671 643 c 0
 618 643 557 633 492 606 c 0
 444 587 394 557 367 520 c 0
 349 495 342 472 342 453 c 0
 342 428 354 408 371 392 c 0
 415 353 488 337 574 337 c 1
 612 383 648 428 680 474 c 0
 758 585 873 708 975 708 c 0
 1008 708 1018 685 1018 661 c 0
 1018 656 1018 652 1017 647 c 0
 1013 608 991 564 960 520 c 0
 920 463 854 412 785 376 c 0
 743 354 701 337 661 327 c 1
 629 287 598 246 569 205 c 0
 478 77 297 -22 165 -22 c 0
 92 -22 32 5 32 57 c 0
 32 76 40 98 58 124 c 0
 70 141 95 153 116 153 c 0
 134 153 149 144 149 119 c 0
 149 100 118 80 92 80 c 0
 80 80 69 85 63 95 c 1
 57 82 54 71 54 61 c 0
 54 21 101 0 169 0 c 0
 268 0 404 103 483 215 c 0
 507 248 532 282 558 315 c 1
 471 316 393 333 343 377 c 0
 320 397 302 423 302 456 c 0
 302 478 309 502 329 530 c 0
 360 574 420 605 473 625 c 0
 546 654 615 665 675 665 c 0
971 686 m 0
 884 686 866 607 766 464 c 0
 740 428 712 392 684 356 c 1
 713 365 743 378 773 394 c 0
 838 428 898 477 935 530 c 1
 965 571 986 612 992 646 c 0
 993 651 993 656 993 660 c 0
 993 676 987 686 971 686 c 0
671 643 m 0
 671 643 l 0
EndSplineSet
EndChar

StartChar: T
Encoding: 84 84 18
Width: 747
Flags: MW
HStem: -22 22<228 316 228 327.5> 350 22<336.5 370.5 336.5 371> 595 56<923 961> 672 56<633.5 698.5>
VStem: 94 22<40.5 68> 264 27 570 50<543.5 556.5 529.5 563>
LayerCount: 2
Fore
SplineSet
547 215 m 0
 605 297 640 377 698 460 c 0
 736 514 794 566 858 606 c 0
 859 607 861 607 862 607 c 0
 866 607 870 605 871 601 c 2
 873 591 l 2
 873 589 872 586 870 585 c 0
 824 542 783 496 751 450 c 0
 692 367 693 291 633 205 c 0
 547 84 387 -22 268 -22 c 0
 180 -22 94 -1 94 59 c 0
 94 77 102 98 120 124 c 0
 132 141 156 153 177 153 c 0
 195 153 210 144 210 119 c 0
 210 100 180 80 154 80 c 0
 142 80 131 85 124 95 c 1
 118 83 116 73 116 64 c 0
 116 17 184 0 272 0 c 0
 360 0 471 107 547 215 c 0
995 643 m 0
 995 641 995 639 994 638 c 2
 966 599 l 2
 965 597 962 595 960 595 c 0
 827 595 763 672 634 672 c 0
 584 672 526 663 465 632 c 0
 411 605 360 564 329 520 c 0
 304 484 290 450 290 424 c 0
 290 420 290 416 291 412 c 0
 296 388 318 372 355 372 c 0
 386 372 421 379 459 397 c 1
 488 412 515 436 532 460 c 0
 558 496 570 530 570 557 c 0
 570 569 568 580 563 589 c 0
 562 590 562 591 562 592 c 0
 562 595 564 598 566 600 c 2
 572 604 l 2
 574 605 575 606 577 606 c 2
 581 605 l 1
 607 593 620 570 620 543 c 0
 620 516 607 483 584 450 c 0
 562 419 523 395 486 379 c 0
 437 358 391 350 351 350 c 0
 306 350 275 370 266 405 c 0
 265 411 264 418 264 425 c 0
 264 456 279 493 304 530 c 0
 342 584 402 634 467 670 c 0
 535 708 605 728 662 728 c 0
 794 728 859 651 987 651 c 0
 991 651 995 647 995 643 c 0
EndSplineSet
EndChar

StartChar: U
Encoding: 85 85 19
Width: 800
Flags: MW
HStem: -17 23<302 318 526 540> 301 22<122.5 153.5 122.5 155> 694 23<445.5 500.5>
VStem: 54 25<376 391 376 394.5> 562 55G<567.5 620 567.5 620>
LayerCount: 2
Fore
SplineSet
288 180 m 1
 478 425 l 2
 525 486 562 562 562 614 c 2
 562 620 l 1
 560 665 530 694 471 694 c 0
 419 694 352 673 287 634 c 0
 221 594 164 540 125 485 c 0
 96 444 79 406 79 376 c 1
 80 367 l 2
 84 340 104 323 141 323 c 0
 166 323 197 333 227 352 c 0
 258 372 282 398 300 425 c 0
 343 486 360 543 367 596 c 0
 368 599 370 602 372 603 c 2
 381 606 l 2
 384 608 387 609 390 609 c 0
 394 608 397 605 397 601 c 2
 397 600 l 2
 397 477 389 463 353 415 c 0
 329 383 294 355 256 334 c 0
 215 312 173 301 137 301 c 0
 91 301 61 324 55 361 c 0
 54 366 54 371 54 377 c 0
 54 412 72 454 100 495 c 0
 142 554 204 610 275 652 c 0
 344 693 416 717 475 717 c 0
 550 717 601 683 614 626 c 0
 616 616 617 605 617 594 c 0
 617 541 592 478 547 415 c 2
 374 170 l 2
 344 128 318 86 305 47 c 0
 299 31 297 21 297 15 c 0
 297 9 299 6 305 6 c 0
 332 6 368 22 402 46 c 0
 443 75 477 110 502 145 c 0
 613 302 737 459 872 614 c 0
 874 616 876 617 879 617 c 2
 951 617 l 2
 953 617 955 617 956 615 c 1
 958 614 959 612 959 609 c 0
 959 607 958 605 957 604 c 0
 822 449 698 292 587 135 c 0
 563 101 543 68 531 36 c 0
 525 22 523 14 523 10 c 0
 523 7 525 6 527 6 c 0
 554 6 589 20 623 42 c 0
 661 67 694 99 716 131 c 0
 718 133 720 134 723 134 c 2
 734 134 l 2
 738 134 743 131 743 126 c 0
 743 124 742 123 741 121 c 0
 716 85 679 51 637 25 c 1
 599 0 557 -17 523 -17 c 0
 487 -17 473 8 470 35 c 1
 469 50 l 2
 469 57 470 65 471 73 c 1
 454 57 436 42 416 29 c 0
 378 3 335 -17 301 -17 c 0
 259 -17 245 14 243 46 c 1
 243 51 l 2
 243 90 255 133 288 180 c 1
EndSplineSet
EndChar

StartChar: V
Encoding: 86 86 20
Width: 622
Flags: MW
HStem: -17 21<191 192 192 203> 434 168<262 269 234 294> 697 20G<541 552 552 553>
LayerCount: 2
Fore
SplineSet
161 549 m 0
 128 527 102 499 82 471 c 0
 80 469 77 468 75 468 c 2
 64 468 l 2
 60 468 55 471 55 476 c 0
 55 478 56 479 57 481 c 0
 79 512 111 543 148 566 c 0
 182 588 219 602 249 602 c 0
 289 602 320 586 320 560 c 0
 320 548 313 534 298 519 c 0
 278 498 270 481 270 470 c 0
 270 461 275 456 285 456 c 0
 302 456 327 470 350 487 c 0
 373 505 393 525 410 546 c 1
 440 602 481 658 535 714 c 0
 537 716 539 717 541 717 c 2
 552 717 l 2
 554 717 556 716 558 714 c 0
 559 713 560 711 560 708 c 0
 560 706 560 704 558 703 c 0
 491 634 453 469 426 348 c 0
 412 285 383 217 339 148 c 1
 347 156 l 1
 417 221 487 286 536 355 c 0
 619 473 691 611 840 699 c 0
 841 700 843 700 844 700 c 0
 848 700 851 698 852 694 c 2
 857 674 l 2
 857 671 856 669 853 667 c 0
 716 586 643 462 560 345 c 0
 471 219 318 109 210 -14 c 0
 208 -16 206 -17 203 -17 c 2
 192 -17 l 2
 190 -17 188 -16 187 -15 c 0
 185 -13 184 -11 184 -8 c 0
 184 -6 185 -4 186 -3 c 0
 281 95 312 235 338 352 c 0
 347 394 360 437 379 482 c 1
 374 478 369 474 364 471 c 0
 338 452 307 434 281 434 c 0
 243 434 221 452 221 478 c 0
 221 494 230 512 248 531 c 0
 261 544 266 556 266 564 c 0
 266 574 258 580 245 580 c 0
 222 580 191 568 161 549 c 0
EndSplineSet
EndChar

StartChar: W
Encoding: 87 87 21
Width: 805
Flags: W
HStem: -17 21<105.5 107 107 118 326 328 328 339> 455 175<165.5 260.5> 608 22<169 197.5> 697 20G<530 541 541 542 752 763 763 765.5>
LayerCount: 2
Fore
SplineSet
322 -4 m 0xb0
 407 118 438 234 502 354 c 0
 524 395 582 481 643 569 c 1
 576 495 511 420 447 345 c 0
 343 224 239 104 124 -14 c 0
 122 -16 120 -17 118 -17 c 2
 107 -17 l 2
 104 -17 102 -16 101 -14 c 1
 99 -13 98 -11 98 -8 c 0
 98 -6 99 -4 101 -3 c 0
 165 64 232 232 280 353 c 0
 296 394 316 435 341 476 c 1
 309 463 275 455 246 455 c 0xd0
 207 455 170 468 170 494 c 0
 170 504 175 517 189 531 c 0
 209 552 218 570 218 584 c 0
 218 599 207 608 188 608 c 0
 150 608 112 557 73 503 c 0
 72 500 69 499 67 499 c 2
 55 499 l 2
 51 499 47 503 47 508 c 0
 47 509 48 511 49 512 c 0
 86 565 139 630 192 630 c 0
 239 630 270 608 270 577 c 0
 270 560 261 540 240 519 c 0
 230 509 225 500 225 493 c 0
 225 483 235 477 250 477 c 0
 285 477 328 491 364 514 c 1
 407 581 460 649 524 714 c 0
 526 716 528 717 530 717 c 2
 541 717 l 2
 543 717 545 716 547 714 c 0
 549 713 550 711 550 708 c 0
 550 706 549 704 547 703 c 0
 482 636 416 468 368 347 c 0
 351 305 330 263 305 220 c 1
 450 385 588 552 746 714 c 0
 748 716 750 717 752 717 c 2
 763 717 l 2
 768 717 771 712 771 708 c 0
 771 707 771 705 770 704 c 0
 684 582 653 466 589 346 c 0
 563 296 483 181 410 77 c 1
 521 169 649 252 722 355 c 0
 880 579 861 634 1021 699 c 0
 1022 700 1024 700 1025 700 c 0
 1028 700 1031 698 1032 695 c 1
 1030 669 l 2
 1029 666 1027 663 1025 662 c 0
 883 604 854 497 747 345 c 0
 652 211 469 112 345 -14 c 0
 344 -16 342 -17 339 -17 c 2
 328 -17 l 2
 324 -17 320 -13 320 -8 c 0
 320 -7 321 -5 322 -4 c 0xb0
EndSplineSet
EndChar

StartChar: X
Encoding: 88 88 22
Width: 944
Flags: W
HStem: -17 23<204.5 256 204.5 261 619.5 663.5> 336 22<507 592 512 577 687 757> 350 22<336.5 364 336.5 365.5> 694 23<565 617.5 1015 1038 1038 1054>
VStem: 273 26<421 425 425 426 421 446> 535 25<90 93 90 96 90 110.5> 575 114G<552 595>
LayerCount: 2
Fore
SplineSet
477 460 m 0xbe
 516 515 535 568 535 611 c 2
 535 617 l 2
 535 620 536 623 539 625 c 2
 546 629 l 2
 547 630 549 630 550 630 c 0
 552 630 555 629 556 627 c 0
 569 611 575 592 575 570 c 0
 575 534 559 492 529 450 c 0
 510 423 480 398 448 379 c 0
 415 360 380 350 351 350 c 0xbe
 303 350 276 377 273 417 c 1
 273 425 l 2
 273 467 295 516 329 565 c 1
 358 605 400 643 448 672 c 0
 495 700 545 717 585 717 c 0
 681 717 739 670 751 594 c 0
 752 584 753 574 753 564 c 0
 753 531 746 495 732 457 c 1
 772 505 815 553 863 599 c 0
 916 651 984 717 1042 717 c 0
 1074 717 1132 717 1132 687 c 0
 1132 680 1129 671 1121 660 c 0
 1109 643 1085 631 1064 631 c 0
 1046 631 1031 640 1031 665 c 0
 1031 676 1041 687 1054 694 c 1
 1038 694 l 2
 992 694 935 639 879 584 c 0
 805 511 743 435 687 358 c 1
 761 358 l 2xde
 763 358 765 358 766 357 c 0
 768 355 770 353 770 350 c 0xbe
 770 346 766 343 764 340 c 0
 763 337 760 336 757 336 c 2
 670 336 l 1
 652 310 l 1
 596 231 560 155 560 93 c 2
 560 90 l 1
 561 40 589 6 650 6 c 0
 677 6 714 28 747 55 c 0
 794 93 830 137 861 180 c 0
 862 182 865 183 868 183 c 2
 879 183 l 2
 883 183 887 179 887 175 c 0
 887 173 887 172 885 170 c 0
 853 125 813 79 762 39 c 0
 726 10 682 -17 647 -17 c 0
 573 -17 537 27 535 86 c 1
 535 96 l 2
 535 125 542 158 555 191 c 1
 519 152 479 115 434 80 c 0
 369 29 291 -17 231 -17 c 0
 160 -17 103 9 103 59 c 0
 103 77 111 99 128 124 c 0
 140 141 164 153 185 153 c 0
 203 153 218 144 218 119 c 0
 218 100 189 81 163 81 c 0
 154 81 145 83 138 89 c 1
 134 79 132 70 132 62 c 0
 132 25 174 6 235 6 c 0
 277 6 333 49 383 96 c 0
 456 164 512 243 566 320 c 0
 570 325 574 331 577 336 c 1
 508 336 l 2
 506 336 505 337 503 338 c 0
 501 339 500 342 500 344 c 0
 500 346 500 348 501 349 c 2
 505 355 l 2
 506 357 509 358 512 358 c 2
 592 358 l 1xde
 648 442 688 523 689 590 c 1
 689 595 l 2
 689 654 654 694 581 694 c 0
 547 694 503 680 461 655 c 0
 417 628 380 592 354 555 c 0
 320 508 299 462 299 426 c 2
 299 421 l 1
 300 392 318 372 355 372 c 0
 373 372 396 381 418 397 c 0
 443 414 460 437 477 460 c 0xbe
EndSplineSet
EndChar

StartChar: Y
Encoding: 89 89 23
Width: 710
Flags: MW
HStem: -17 23<218 298 218 316> 280 22<137.5 169.5 137.5 172> 694 23<451.5 504>
VStem: 57 26<364.5 383.5 364.5 387> 367 45G<558 568.5 533.5 586>
LayerCount: 2
Fore
SplineSet
230 337 m 0
 262 363 284 394 306 425 c 0
 346 482 367 536 367 580 c 0
 367 592 365 604 362 615 c 1
 362 618 l 2
 362 621 363 623 366 625 c 2
 372 629 l 2
 373 630 375 630 376 630 c 0
 378 630 380 629 382 628 c 0
 402 609 412 583 412 554 c 0
 412 513 393 464 359 415 c 1
 334 381 301 347 261 320 c 0
 226 297 188 280 156 280 c 0
 103 280 68 304 59 346 c 0
 58 353 57 360 57 368 c 0
 57 406 75 450 106 495 c 0
 148 554 210 610 281 652 c 0
 350 693 422 717 481 717 c 0
 551 717 608 696 633 648 c 0
 641 633 645 617 645 599 c 0
 645 565 631 525 602 485 c 2
 503 345 l 2
 478 309 460 274 458 245 c 1
 458 239 l 2
 458 222 465 211 484 211 c 0
 502 211 526 219 550 233 c 1
 558 240 561 245 565 250 c 0
 639 355 691 459 766 565 c 0
 807 623 888 662 951 699 c 0
 952 700 953 700 955 700 c 0
 958 700 962 699 963 696 c 2
 965 688 l 2
 965 685 963 683 961 681 c 0
 904 647 851 602 818 555 c 0
 743 449 727 349 651 240 c 1
 556 106 381 -17 251 -17 c 0
 171 -17 96 6 96 61 c 0
 96 79 104 99 121 124 c 0
 133 141 157 153 178 153 c 0
 196 153 211 144 211 119 c 0
 211 100 181 81 156 81 c 0
 147 81 139 83 132 89 c 1
 128 80 127 72 127 65 c 0
 127 24 181 6 255 6 c 0
 341 6 444 96 526 198 c 1
 510 192 494 189 480 189 c 0
 437 189 408 209 397 240 c 0
 393 252 390 264 390 278 c 0
 390 301 398 327 417 355 c 2
 516 495 l 2
 551 543 574 590 574 625 c 0
 574 630 574 634 573 639 c 0
 565 675 531 694 477 694 c 0
 424 694 358 673 293 634 c 0
 227 594 170 540 131 485 c 0
 100 442 83 400 83 367 c 0
 83 362 83 357 84 352 c 0
 89 322 115 302 160 302 c 0
 179 302 206 317 230 337 c 0
EndSplineSet
EndChar

StartChar: Z
Encoding: 90 90 24
Width: 821
Flags: W
HStem: -17 56<520 559> -8 22<171.5 185 185 194> 90 22<214.5 255> 336 22<518 595 524 579 687 797> 350 22<293.5 321 293.5 322.5> 686 22<917.5 974.5> 694 23<558.5 592>
LayerCount: 2
Fore
SplineSet
375 397 m 1xaa
 400 414 417 437 434 460 c 0
 459 496 472 530 472 557 c 0
 472 565 470 573 468 580 c 0
 467 581 467 582 467 583 c 0
 467 586 469 589 471 590 c 2
 478 594 l 1
 482 595 l 2
 483 595 484 594 486 594 c 0
 509 582 519 561 519 537 c 0
 519 511 508 481 486 450 c 0
 467 423 437 398 405 379 c 0
 372 360 337 350 308 350 c 0
 263 350 232 370 223 405 c 0
 222 411 221 418 221 425 c 0
 221 456 236 493 262 530 c 0
 297 580 350 627 410 662 c 0
 470 697 533 717 584 717 c 0xaa
 624 717 660 707 679 680 c 0
 685 670 689 659 689 646 c 0
 689 629 682 610 668 590 c 0
 658 575 654 562 654 552 c 0
 654 545 655 540 658 535 c 0
 665 523 681 515 703 513 c 1
 782 618 867 708 966 708 c 0
 997 708 1021 696 1030 672 c 0
 1033 665 1034 658 1034 650 c 0
 1034 632 1027 611 1012 590 c 0
 986 553 935 533 893 519 c 0
 846 504 802 496 761 492 c 1
 737 446 714 399 687 358 c 1
 801 358 l 2xb4
 806 358 810 355 810 350 c 0xac
 810 348 809 347 808 345 c 2
 804 340 l 1
 803 337 800 336 797 336 c 2
 672 336 l 1
 600 237 504 138 406 71 c 1
 448 54 492 39 548 39 c 0
 608 39 691 79 732 136 c 0
 733 139 736 140 738 140 c 2
 750 140 l 2
 754 140 758 136 758 132 c 0
 758 130 757 128 756 127 c 0
 702 50 598 -17 520 -17 c 0xb4
 448 -17 407 16 363 45 c 1
 305 12 247 -8 194 -8 c 2
 185 -8 l 2
 143 -8 81 -7 81 26 c 0
 81 34 85 44 94 57 c 0
 126 103 190 112 239 112 c 0
 288 112 326 101 363 88 c 1
 439 150 513 244 579 336 c 1
 520 336 l 2
 516 336 512 340 512 344 c 0
 512 346 513 348 513 349 c 2
 517 355 l 2
 519 357 521 358 524 358 c 2
 595 358 l 1x74
 625 401 655 447 687 491 c 1
 653 494 623 503 601 521 c 0
 587 532 570 546 570 567 c 0
 570 576 574 587 582 600 c 0
 600 629 619 653 619 671 c 1
 617 686 604 694 580 694 c 0
 535 694 478 677 423 644 c 0
 367 611 319 566 286 520 c 0
 261 484 247 450 247 424 c 0
 247 420 247 416 248 412 c 0
 253 388 275 372 312 372 c 0
 330 372 354 381 375 397 c 1xaa
883 538 m 1
 924 552 966 570 987 600 c 0
 1001 619 1008 638 1008 652 c 0
 1008 656 1007 660 1006 663 c 0
 1001 677 987 686 962 686 c 0x74
 873 686 821 607 773 515 c 1
 808 519 844 526 883 538 c 1
235 90 m 0
 192 90 142 82 118 48 c 0
 114 42 112 36 112 32 c 0
 112 15 145 14 198 14 c 0
 242 14 287 33 332 64 c 1
 305 79 275 90 235 90 c 0
EndSplineSet
EndChar

StartChar: tie
Encoding: 127 8256 25
Width: 278
Flags: MW
HStem: 368 21<402 403 403 405 760.5 761 761 764> 490 30<655.5 691>
LayerCount: 2
Fore
SplineSet
396 381 m 0
 424 421 471 456 519 479 c 0
 576 507 632 520 679 520 c 0
 725 520 766 507 786 476 c 0
 793 466 796 453 796 440 c 0
 796 419 788 396 771 372 c 0
 769 370 767 368 764 368 c 2
 761 368 l 2
 760 368 758 369 756 370 c 0
 754 371 753 374 753 377 c 0
 753 378 753 380 754 381 c 0
 767 400 773 415 773 429 c 0
 773 440 769 450 763 457 c 0
 747 479 713 490 669 490 c 0
 626 490 575 480 522 455 c 0
 479 435 436 406 412 372 c 0
 411 370 408 368 405 368 c 2
 403 368 l 2
 401 368 399 369 398 370 c 0
 396 371 394 374 394 377 c 0
 394 378 395 380 396 381 c 0
EndSplineSet
EndChar

StartChar: A
Encoding: 65 65 26
Width: 803
Flags: W
HStem: -8 22<104 149 104 150> 0 69<485 518 518 518 518 558> 47 22<503 518> 433 22<363.5 415> 697 20G<981 992 992 993>
VStem: 189 48G<208.5 253.5 208.5 260> 582 27G<222 248>
LayerCount: 2
Fore
SplineSet
739 148 m 0xbe
 740 150 743 151 745 151 c 0
 746 151 747 151 748 150 c 0
 751 149 753 145 753 142 c 2
 753 140 l 1
 752 137 751 134 749 132 c 0
 705 86 643 53 591 46 c 1
 565 4 l 2
 564 2 561 0 558 0 c 2
 486 0 l 2x5e
 484 0 482 0 481 2 c 1
 479 3 477 6 477 8 c 0
 477 10 478 12 479 13 c 2
 503 47 l 1
 433 52 369 64 317 85 c 1
 255 31 180 -8 120 -8 c 0
 69 -8 35 15 35 52 c 0
 35 69 42 88 57 110 c 0
 69 127 93 139 114 139 c 0
 132 139 147 130 147 105 c 0
 147 86 117 66 91 66 c 0
 80 66 70 70 64 78 c 1
 60 70 59 62 59 55 c 0
 59 29 84 14 124 14 c 0
 174 14 238 48 293 96 c 1
 229 127 189 174 189 238 c 0
 189 282 208 335 251 396 c 0
 279 436 337 455 380 455 c 0
 465 455 523 429 560 386 c 1
 629 449 706 509 782 567 c 0
 842 612 903 656 964 699 c 1
 974 713 l 2
 976 715 978 717 981 717 c 2
 992 717 l 2
 994 717 995 716 997 715 c 0
 999 714 1000 711 1000 708 c 0
 1000 707 1000 705 999 704 c 2
 606 71 l 1
 650 80 701 109 739 148 c 0xbe
608 196 m 1
 921 638 l 1
 881 610 842 582 803 553 c 0
 723 494 644 432 574 367 c 1
 598 329 609 281 609 227 c 0
 609 217 609 206 608 196 c 1
292 374 m 0
 254 320 237 273 237 234 c 0
 237 183 267 144 316 117 c 1
 336 137 354 158 370 180 c 0
 416 245 474 308 540 368 c 1
 507 409 454 433 376 433 c 0
 351 433 314 405 292 374 c 0
394 170 m 0
 379 148 360 126 339 106 c 1
 387 85 449 73 518 69 c 1
 576 150 l 1
 580 176 582 201 582 224 c 0
 582 272 573 315 553 349 c 1
 492 291 438 232 394 170 c 0
EndSplineSet
EndChar
